<svg xmlns="http://www.w3.org/2000/svg" viewBox="0 0 101.70235 92.91765"><defs><style>.cls-1{fill:none;}.cls-1,.cls-2{stroke:#000;stroke-miterlimit:10;stroke-width:6px;}.cls-2{fill:#fff;}</style></defs><g id="レイヤー_2" data-name="レイヤー 2"><g id="レイヤー_1-2" data-name="レイヤー 1"><path class="cls-1" d="M64.86506,31.48545H81.84138a16.861,16.861,0,0,1,16.861,16.861v0a16.861,16.861,0,0,1-16.861,16.861H78.9183"/><path class="cls-2" d="M42.22389,17.21057H79.65855V51.58841A38.32923,38.32923,0,0,1,41.32932,89.91765h-.00008A38.32923,38.32923,0,0,1,3,51.58841V17.21057"/><path class="cls-1" d="M18.78337,0c0,4.66453-4,4.66453-4,9.32906,0,4.66773,4,4.66773,4,9.33547s-4,4.66773-4,9.33547"/><path class="cls-1" d="M33.78337,0c0,4.66453-4,4.66453-4,9.32906,0,4.66773,4,4.66773,4,9.33547s-4,4.66773-4,9.33547"/><path d="M4.78337,52h75a0,0,0,0,1,0,0v9.08215A15.91785,15.91785,0,0,1,63.86552,77H20.70122A15.91785,15.91785,0,0,1,4.78337,61.08215V52a0,0,0,0,1,0,0Z"/><ellipse cx="42.28337" cy="78.5" rx="27.5" ry="8.5"/></g></g></svg>