<svg xmlns="http://www.w3.org/2000/svg" viewBox="0 0 113.16026 33.80919"><g id="レイヤー_2" data-name="レイヤー 2"><g id="レイヤー_1-2" data-name="レイヤー 1"><path d="M12.15145,18.33017c.5664-.69873.94336-1.16455,1.459-1.16113a.6135.6135,0,0,1,.6499.65966c-.00244.42139-.19091.70069-.75683,1.35254-2.21729,2.65235-6.78272,6.64746-10.80762,6.6211a2.7525,2.7525,0,0,1-2.6958-2.87207c.02-3.04151,4.40723-8.34815,8.104-8.32422a2.3027,2.3027,0,0,1,2.09375,1.88574,2.8057,2.8057,0,0,1-2.31,2.55908c-.32764-.002-.6543-.09814-.64991-.7998.0044-.65528,1.08155-.74219,1.08594-1.44385.00147-.1875-.13818-.375-.46582-.37744-1.91846-.01221-5.686,3.61377-5.70361,6.28076-.0044.70166.31885,1.40576,1.11426,1.41113C6.40438,24.14218,10.45272,20.565,12.15145,18.33017Z"/><path d="M22.04989,14.79062c.749.00488,1.21435.42871,1.21044.99023-.0039.6084-1.23095,2.1919-2.22558,4.05762a5.94921,5.94921,0,0,0-.85986,2.66162c-.00391.6084.18017,1.124.60107,1.127,1.68457.01075,4.51269-2.96533,6.2583-5.20019.51953-.69922.94336-1.16455,1.41113-1.16162a.59137.59137,0,0,1,.65088.65967c-.00244.42138-.19092.70117-.71094,1.353-2.26318,2.65235-5.937,6.23194-8.27685,6.2168a2.08533,2.08533,0,0,1-2.18506-2.21387c.00342-.51465.10156-1.16943.104-1.59082.002-.28027.00293-.42041-.09082-.4209-.28125-.002-1.03515.88184-2.07128,1.811-2.21192,1.9043-3.669,2.83105-4.74512,2.82373a1.821,1.821,0,0,1-1.39258-1.834c.03076-4.77295,5.1626-9.37256,9.001-9.39454.88867.00586,1.72412,1.08741,1.91064,1.08838C21.01424,15.7662,21.254,14.78525,22.04989,14.79062Zm-10.1626,8.31055a.53955.53955,0,0,0,.55761.56543c.7959.00537,6.91358-5.24366,6.91846-6.03907.002-.23388-.79394-.09863-.79053-.61328a.50266.50266,0,0,0-.51123-.56494C16.04891,16.43613,11.90194,20.8082,11.88729,23.10117Z"/><path d="M28.335,15.33945l1.16992.00781A69.21215,69.21215,0,0,1,33.72274,7.044C35.94686,3.22079,39.43026.295,41.25545.30673c1.35645.00879,2.52149.71875,2.5166,1.51416-.00634.936-.6665,1.72754-1.228,1.72364-.4209-.00245-.74659-.23926-.74414-.61329.00244-.42138-.08936-.65576-.604-.65918C40.16561,2.26572,38.0035,3.74912,35.733,7.47812a72.98232,72.98232,0,0,0-4.12256,7.88281l5.19434.03369a.77986.77986,0,0,1,.79.75391.669.669,0,0,1-.65869.65088c-2.05957-.01319-4.353.15918-6.13184.2876-2.13721,4.7124-4.18994,10.9707-4.21094,14.24658-.00537.7959.18115.79687.17578,1.63916a1.00207,1.00207,0,0,1-.94091.83642c-.46778-.00341-1.07325-.47509-1.06495-1.78564.02442-3.74365,2.08106-10.60938,3.88623-14.76318-1.123-.00733-1.45019-.00977-1.44628-.57129A1.23054,1.23054,0,0,1,28.335,15.33945Z"/><path d="M46.44246,18.53964c.56641-.69824.99024-1.16406,1.458-1.16064a.59081.59081,0,0,1,.65088.65918c-.00244.42138-.19092.70117-.71094,1.353C45.57723,22.04355,41.713,26.18369,36.51766,26.15a3.08656,3.08656,0,0,1-2.78711-3.01318c.00293-.46826-.13672-.60937-.13379-1.07764A1.41174,1.41174,0,0,1,34.399,20.9415c1.94824-4.43311,5.09423-6.19141,7.481-6.17578a1.92648,1.92648,0,0,1,1.90821,1.65088c-.01514,2.38671-4.104,5.0747-7.00977,5.71-.84424.18213-.89258.4624-.896.93017a1.35537,1.35537,0,0,0,1.39551,1.41358C41.39608,24.49716,44.74373,20.775,46.44246,18.53964Zm-9.936,2.13477c1.63916-.03613,5.35254-2.63281,5.35889-3.61572.00244-.374-.1836-.46875-.5586-.4712C39.85653,16.57773,37.2159,19.55624,36.50643,20.67441Zm7.87988-9.87061c-.00293.46826-.19092.70117-.71,1.2124a7.15541,7.15541,0,0,1-3.80322,1.9878c-.42188-.00244-.60742-.14453-.606-.37842a.56551.56551,0,0,1,.47168-.55811c.79736-.22949,2.02393-1.71923,2.87451-3.11718a.81179.81179,0,0,1,.75244-.46289C43.7867,9.48984,44.39022,10.24228,44.38631,10.8038Z"/><path d="M62.23153,15.83408c.00488-.79541,1.03515-.88233,1.78418-.87745,4.67968.03028,9.71972-4.94433,9.74218-8.40771.01953-2.99512-1.42187-4.45557-5.11914-4.47949C59.98153,2.01328,51.795,8.55917,51.76717,12.818c-.00293.4209.36963.79785.3667,1.26612a1.27163,1.27163,0,0,1-1.36523,1.20752,1.40376,1.40376,0,0,1-1.207-1.50586C49.60653,6.86,58.96151.50888,69.35067.57675c4.11816.02637,6.39941,1.81983,6.374,5.7041-.03125,4.82032-6.34082,10.76953-11.76953,10.73438C62.73836,17.00742,62.22664,16.58261,62.23153,15.83408ZM67.30477,5.71152c-.00293.51465-.61426,1.02539-1.32129,1.67578A27.55935,27.55935,0,0,0,60.839,13.9996c-3.88086,6.71436-4.1836,10.08155-4.19971,12.51514-.00244.42139-.00684,1.07666-.61523,1.07275a1.6025,1.6025,0,0,1-1.58155-1.415c.00537-.84228.646-5.84472,4.43457-12.60693C61.338,9.27646,63.22567,6.8082,64.49715,5.64609a2.62269,2.62269,0,0,1,1.83106-.92383A.88689.88689,0,0,1,67.30477,5.71152Z"/><path d="M80.06063,18.75156c.5664-.69825.94336-1.16407,1.458-1.16065a.61378.61378,0,0,1,.65039.65918c-.00293.42139-.19141.70117-.75684,1.35254-2.2168,2.65283-6.31543,6.74463-8.9834,6.727a3.4181,3.4181,0,0,1-3.34668-3.438c.02637-3.97705,3.11524-11.16455,5.81153-15.7334,2.83984-4.80224,4.96093-7.17529,7.581-7.1582a2.054,2.054,0,0,1,1.8125,1.93067c-.00879,1.35693-.77637,4.207-4.17187,8.49023a36.96485,36.96485,0,0,1-7.34668,6.97266,12.80284,12.80284,0,0,0-1.53028,4.99707c-.00879,1.35742.501,2.20312,1.53028,2.21C74.78035,24.61386,78.36141,20.98691,80.06063,18.75156ZM76.57528,7.77744c-2.50879,4.33642-3.083,6.29834-3.22852,7.04638a24.34408,24.34408,0,0,0,5.5127-5.7207c2.78515-3.77344,3.35546-5.17334,3.3623-6.29639.00391-.46826-.22852-.65674-.69629-.66015C80.91707,2.14267,78.99032,3.441,76.57528,7.77744Z"/><path d="M90.33211,15.21494c.749.00488,1.21387.42871,1.21094.99023-.00391.6084-1.23145,2.19189-2.22559,4.05762a5.94479,5.94479,0,0,0-.86035,2.66162c-.0039.6084.17969,1.124.60059,1.12695,1.68457.01074,4.51269-2.96582,6.25879-5.20068.51953-.69873.94336-1.16406,1.41113-1.16114a.59176.59176,0,0,1,.65137.65967c-.00293.42139-.19141.70069-.71094,1.353-2.26367,2.65234-5.9375,6.23193-8.27734,6.2168a2.08493,2.08493,0,0,1-2.18457-2.21387c.00293-.51465.10058-1.16943.10351-1.59082.00195-.28027.00293-.42041-.09082-.4209-.28125-.00195-1.03516.88184-2.07129,1.811-2.21191,1.90429-3.668,2.83105-4.74414,2.82373a1.8205,1.8205,0,0,1-1.39258-1.834c.03125-4.773,5.16211-9.37256,9-9.39453.88867.00537,1.72461,1.0874,1.91114,1.08838C89.297,16.19052,89.53621,15.20956,90.33211,15.21494ZM80.17,23.52548a.541.541,0,0,0,.5586.56543c.79492.00488,6.91211-5.24365,6.917-6.03906.002-.23389-.79395-.09863-.791-.61328a.502.502,0,0,0-.51074-.56494C84.33114,16.86044,80.18563,21.23251,80.17,23.52548Z"/><path d="M105.19051,18.91513c.56641-.69873.94336-1.16455,1.459-1.16113a.6144.6144,0,0,1,.6504.65967c-.00293.42138-.19141.70068-.75684,1.35253-2.21777,2.65284-6.7832,6.64747-10.80762,6.62159a2.7523,2.7523,0,0,1-2.69629-2.87207c.01953-3.04151,4.40723-8.34864,8.1045-8.32422a2.30061,2.30061,0,0,1,2.09277,1.88574,2.80422,2.80422,0,0,1-2.30957,2.55859c-.32715-.00195-.6543-.09814-.64942-.7998.00391-.65527,1.08106-.7417,1.085-1.44336.001-.1875-.13672-.37549-.46485-.37744-1.91894-.0127-5.68652,3.61328-5.70312,6.28027-.00489.70166.31738,1.40625,1.11328,1.41113C99.44246,24.72714,103.49129,21.15,105.19051,18.91513Z"/><path d="M110.02938,23.34531c.75293-.55664,1.084-1.023,1.59863-1.01953a.61339.61339,0,0,1,.65039.65966c-.002.42139-.28613.74707-.94433,1.25733-1.41016,1.06689-3.01075,2.32031-5.16309,2.30664a3.306,3.306,0,0,1-3.06934-2.96875c.00293-.46826-.13672-.60889-.13379-1.07715a1.40936,1.40936,0,0,1,.80372-1.11768c1.94726-4.4331,5.09375-6.1914,7.48046-6.17578a1.92648,1.92648,0,0,1,1.90821,1.65088c-.01563,2.38672-4.1045,5.07471-7.00977,5.71-.84375.18213-.89258.4624-.89551.93018a1.35446,1.35446,0,0,0,1.39453,1.41357A5.98609,5.98609,0,0,0,110.02938,23.34531ZM105.879,21.11874c1.63867-.03613,5.35156-2.63281,5.3584-3.61572.00195-.374-.1836-.46875-.5586-.47119C109.2286,17.02206,106.588,20.00058,105.879,21.11874Z"/></g></g></svg>