<svg xmlns="http://www.w3.org/2000/svg" viewBox="0 0 28.00059 23.59456"><defs><style>.cls-1{fill:#fff;}</style></defs><g id="レイヤー_2" data-name="レイヤー 2"><g id="レイヤー_1-2" data-name="レイヤー 1"><g id="レイヤー_2-2" data-name="レイヤー 2"><g id="レイヤー_1-2-2" data-name="レイヤー 1-2"><path class="cls-1" d="M10.75258,17.27715a.49985.49985,0,0,0-.40921-.19274.38238.38238,0,0,0-.174.0423.14962.14962,0,0,0-.08479.14585.13083.13083,0,0,0,.08709.1246,1.15912,1.15912,0,0,0,.22107.07063q.13407.03043.28691.06584a1.07442,1.07442,0,0,1,.28691.11044.64263.64263,0,0,1,.22107.20461.61094.61094,0,0,1,.08708.34586.6393.6393,0,0,1-.09646.36443.73937.73937,0,0,1-.24691.23045,1.06114,1.06114,0,0,1-.33878.1223,2.0093,2.0093,0,0,1-.37151.0354,1.79256,1.79256,0,0,1-.48444-.06833.9037.9037,0,0,1-.414-.24211l.428-.47525a.70672.70672,0,0,0,.21877.18585.58994.58994,0,0,0,.27983.06354.65321.65321,0,0,0,.22106-.03521.13011.13011,0,0,0,.09877-.12938.14348.14348,0,0,0-.0869-.13418.96585.96585,0,0,0-.22107-.07522q-.13407-.03042-.28691-.06584a1.18394,1.18394,0,0,1-.2871-.10584.601.601,0,0,1-.22107-.19982.611.611,0,0,1-.08689-.34586.6964.6964,0,0,1,.0823-.348.72228.72228,0,0,1,.21628-.24.94116.94116,0,0,1,.30816-.13876,1.41756,1.41756,0,0,1,.35275-.0446,1.65756,1.65756,0,0,1,.4563.06584.8469.8469,0,0,1,.39046.23523Z"/><path class="cls-1" d="M11.59,15.88491a.4094.4094,0,1,1,.11981.2892A.39493.39493,0,0,1,11.59,15.88491Zm.05646.71967h.7055v2.28609h-.7055Z"/><path class="cls-1" d="M12.8601,16.60457h.67718V16.915h.00957a.567.567,0,0,1,.094-.13168.68531.68531,0,0,1,.14585-.11771.83819.83819,0,0,1,.19293-.0846.80728.80728,0,0,1,.235-.03293.97354.97354,0,0,1,.43276.0823.62631.62631,0,0,1,.25648.22816.92556.92556,0,0,1,.1246.34338,2.62343,2.62343,0,0,1,.03293.428v1.26076h-.70551V17.77116c0-.06584-.00249-.13417-.00709-.2046a.64643.64643,0,0,0-.0423-.19523A.30378.30378,0,0,0,13.989,17.169a.43517.43517,0,0,0-.22107.04938.33668.33668,0,0,0-.12939.13168.53757.53757,0,0,0-.05875.18585,1.60308,1.60308,0,0,0-.01417.21629v1.13845H12.8601Z"/><path class="cls-1" d="M17.10749,17.343a.39469.39469,0,0,0-.14584-.12461.42919.42919,0,0,0-.20232-.04938.54.54,0,0,0-.41629.16.66545.66545,0,0,0,0,.83719.54.54,0,0,0,.41629.16.37919.37919,0,0,0,.20232-.05187.6143.6143,0,0,0,.14584-.1223l.46569.48923a.89889.89889,0,0,1-.388.23752,1.45722,1.45722,0,0,1-.42587.06834,1.44027,1.44027,0,0,1-.49612-.0848,1.1943,1.1943,0,0,1-.40462-.24212,1.13571,1.13571,0,0,1-.27045-.37879,1.28441,1.28441,0,0,1,0-.98781,1.13659,1.13659,0,0,1,.27045-.37859,1.19478,1.19478,0,0,1,.40462-.24232,1.4401,1.4401,0,0,1,.49611-.0846,1.4629,1.4629,0,0,1,.42587.06814.90261.90261,0,0,1,.388.23753Z"/><path class="cls-1" d="M19.99077,18.49542a1.12294,1.12294,0,0,1-.428.334,1.28125,1.28125,0,0,1-.53631.11771,1.44,1.44,0,0,1-.49611-.08479,1.19446,1.19446,0,0,1-.40462-.24212,1.13571,1.13571,0,0,1-.27045-.37879,1.28441,1.28441,0,0,1,0-.98781,1.1367,1.1367,0,0,1,.27045-.37859,1.19478,1.19478,0,0,1,.40462-.24232,1.4401,1.4401,0,0,1,.49611-.0846,1.12945,1.12945,0,0,1,.44463.0846.92524.92524,0,0,1,.33859.24232,1.10723,1.10723,0,0,1,.21418.37859,1.53374,1.53374,0,0,1,.07522.494v.22107H18.462a.55821.55821,0,0,0,.18356.32213.51826.51826,0,0,0,.348.12.52865.52865,0,0,0,.294-.07771.78771.78771,0,0,0,.20939-.19982Zm-.59737-1.00658a.40858.40858,0,0,0-.11752-.30567.41792.41792,0,0,0-.31524-.12709.5302.5302,0,0,0-.2069.03771.51826.51826,0,0,0-.15293.09647.42406.42406,0,0,0-.09877.13628.44788.44788,0,0,0-.04.1623Z"/><path class="cls-1" d="M10.18566,21.05446l-.7478.588-.334-.46109,1.21349-.91719H10.976l-.46569,3.33038H9.83291Z"/><path class="cls-1" d="M12.86221,22.40442q-.06115.01406-.11771.02354a.70857.70857,0,0,1-.11752.00938.9726.9726,0,0,1-.4163-.0846.80452.80452,0,0,1-.29628-.23064.86475.86475,0,0,1-.16231-.34567,1.13012,1.13012,0,0,1-.01417-.42568,1.177,1.177,0,0,1,.16-.468,1.35949,1.35949,0,0,1,.315-.35983,1.418,1.418,0,0,1,.42568-.23294,1.52363,1.52363,0,0,1,.50109-.0823,1.32894,1.32894,0,0,1,.47506.0823.9817.9817,0,0,1,.36213.23294.89344.89344,0,0,1,.21169.35983,1.08665,1.08665,0,0,1,.03293.468,1.74776,1.74776,0,0,1-.08231.32692,1.97978,1.97978,0,0,1-.12689.27983,2.25975,2.25975,0,0,1-.16231.25169q-.08958.12-.18356.24691l-.88906,1.13845h-.86073Zm-.42338-1.02553a.44324.44324,0,0,0,.09646.374.45784.45784,0,0,0,.36443.14815.60417.60417,0,0,0,.61153-.52214.439.439,0,0,0-.09876-.37381.46566.46566,0,0,0-.36692-.14815.59187.59187,0,0,0-.40692.14815A.59967.59967,0,0,0,12.43883,21.37889Z"/><path class="cls-1" d="M15.64691,22.40442q-.06116.01406-.11771.02354a.70857.70857,0,0,1-.11752.00938.9726.9726,0,0,1-.4163-.0846.80464.80464,0,0,1-.29629-.23064.86492.86492,0,0,1-.1623-.34567,1.13012,1.13012,0,0,1-.01417-.42568,1.1768,1.1768,0,0,1,.16-.468,1.35953,1.35953,0,0,1,.31505-.35983,1.4178,1.4178,0,0,1,.42568-.23294,1.52363,1.52363,0,0,1,.50109-.0823,1.32914,1.32914,0,0,1,.475.0823.982.982,0,0,1,.36214.23294.89362.89362,0,0,1,.21169.35983,1.08665,1.08665,0,0,1,.03292.468,1.747,1.747,0,0,1-.0823.32692,1.981,1.981,0,0,1-.1269.27983,2.256,2.256,0,0,1-.16231.25169q-.08957.12-.18355.24691l-.88906,1.13846h-.86074Zm-.42338-1.02553a.44324.44324,0,0,0,.09646.374.45784.45784,0,0,0,.36443.14815.60417.60417,0,0,0,.61153-.52214.439.439,0,0,0-.09876-.37381.46566.46566,0,0,0-.36692-.14815.59187.59187,0,0,0-.40692.14815A.59967.59967,0,0,0,15.22353,21.37889Z"/><path class="cls-1" d="M18.43161,22.40442q-.06115.01406-.11771.02354a.70857.70857,0,0,1-.11752.00938.9726.9726,0,0,1-.4163-.0846.80464.80464,0,0,1-.29629-.23064.86492.86492,0,0,1-.1623-.34567,1.13012,1.13012,0,0,1-.01417-.42568,1.17664,1.17664,0,0,1,.16-.468,1.35953,1.35953,0,0,1,.315-.35983,1.41787,1.41787,0,0,1,.42567-.23294,1.52368,1.52368,0,0,1,.50109-.0823,1.32916,1.32916,0,0,1,.47506.0823.982.982,0,0,1,.36213.23294.89357.89357,0,0,1,.21169.35983,1.08666,1.08666,0,0,1,.03293.468,1.74773,1.74773,0,0,1-.0823.32692,1.981,1.981,0,0,1-.1269.27983,2.2574,2.2574,0,0,1-.16231.25169q-.08957.12-.18356.24691l-.88906,1.13846h-.86073Zm-.42338-1.02553a.44324.44324,0,0,0,.09646.374.45784.45784,0,0,0,.36443.14815.60417.60417,0,0,0,.61153-.52214.439.439,0,0,0-.09876-.37381.46566.46566,0,0,0-.36692-.14815.59185.59185,0,0,0-.40692.14815A.59967.59967,0,0,0,18.00823,21.37889Z"/><path class="cls-1" d="M5.71972,8.16525c-.0601-.428.44059-.56081.78742-.60942,1.97642-.27792,3.76908-2.75331,3.56849-4.17983-.17189-1.22267-.9505-1.73658-2.43846-1.52757C3.98983,2.36119.86539,5.70957,1.11422,7.48252c.026.18336.21169.32347.24041.52731A.64651.64651,0,0,1,.773,8.71528l-.00483.00044a.71933.71933,0,0,1-.735-.64482C-.39058,5.05479,3.30155,1.60592,7.80523.973c1.834-.25782,3.049.40271,3.29248,2.13489.29515,2.09891-2.09546,5.19866-4.45927,5.53093C6.0474,8.72185,5.77407,8.55246,5.71972,8.16525Zm1.664-4.72264c.03407.2446-.214.5497-.51449.92447A12.22079,12.22079,0,0,0,5.10149,7.46243a10.91421,10.91421,0,0,0-.9907,5.667c.03139.22413.07733.55009-.2894.60177a.79007.79007,0,0,1-.87164-.58416A14.137,14.137,0,0,1,4.04533,7.34089a15.61241,15.61241,0,0,1,1.906-3.73845A1.46783,1.46783,0,0,1,6.7996,2.9846a.47188.47188,0,0,1,.58416.458Z"/><path class="cls-1" d="M13.8784,7.66282a.297.297,0,0,1,.369.25993c.03177.22413-.05015.38108-.25189.721-.79432,1.29636-2.30065,3.295-3.46208,3.45825a1.51318,1.51318,0,0,1-1.73594-1.25137q-.00831-.05116-.01308-.1028c-.24079-1.71189.67794-5.08266,1.54422-7.19937C11.25926,1.298,12.036.17061,13.19739.00735A.82926.82926,0,0,1,14.12882.72l.00108.00839c.08306.59086-.02757,1.874-1.2311,3.95512a17.98443,17.98443,0,0,1-2.75541,3.60811,5.98782,5.98782,0,0,0-.31352,2.20552c.07159.50932.33572.76311.72312.70876.815-.11466,2.11958-1.77334,2.68076-2.80825C13.43511,8.05749,13.65446,7.69421,13.8784,7.66282Zm-2.71255-3.775a12.09072,12.09072,0,0,0-.83872,2.90261,14.30855,14.30855,0,0,0,1.77544-2.59771A6.299,6.299,0,0,0,13.20045,1.212c-.01722-.1221-.08689-.17475-.22968-.15465C12.72654,1.09163,11.92993,1.93092,11.16585,3.88781Z"/><path class="cls-1" d="M17.63637,6.01256a.54119.54119,0,0,1,.68292.42357c.04861.34644-.56157,1.32565-.73192,1.8899A3.07672,3.07672,0,0,0,17.381,9.51884c.02871.20384.14164.41649.325.39065.67259-.09455,1.64184-1.47762,2.25241-2.457.20136-.33993.4207-.70321.64464-.73478a.2971.2971,0,0,1,.369.25992c.03139.22413-.05015.38108-.25189.7212-.815,1.299-2.16934,3.04787-3.20865,3.19391a.96081.96081,0,0,1-1.14458-.899c-.03139-.22413-.03943-.43065-.05934-.71891-.508.67412-1.69889,2.25452-2.61607,2.38333a.89214.89214,0,0,1-.81844-.79929,4.72354,4.72354,0,0,1,3.33116-4.68665,1.15951,1.15951,0,0,1,.89844.33093C17.16361,6.49451,17.33051,6.05543,17.63637,6.01256Zm-3.71472,4.3249a.16837.16837,0,0,0,.19259.14l.01374-.00276a10.0128,10.0128,0,0,0,2.45147-2.9629.42367.42367,0,0,0-.4878-.34791l-.01788.00339C15.2584,7.28193,13.79,9.4,13.92165,10.33746Z"/><path class="cls-1" d="M25.02523,6.0962a.29721.29721,0,0,1,.369.25993c.0314.22413-.05014.38107-.25188.7212-.79163,1.31646-2.53071,3.28559-4.26289,3.52906A1.28122,1.28122,0,0,1,19.4539,9.488l-.00342-.03156c-.186-1.3245,1.39991-3.93732,3.01-4.16356a1.02475,1.02475,0,0,1,1.12429.75642,1.32063,1.32063,0,0,1-.91107,1.35416.368.368,0,0,1-.42376-.35619.51181.51181,0,0,1,.18719-.44195c.093-.07522.18374-.17111.1692-.27313-.00268-.02029-.04938-.05531-.11063-.0467a3.50289,3.50289,0,0,0-1.95345,2.95524.46852.46852,0,0,0,.47927.45228c1.3245-.18624,2.77724-1.82425,3.3591-2.862C24.582,6.49106,24.80129,6.12778,25.02523,6.0962Z"/><path class="cls-1" d="M26.91781,8.32392c.25342-.26413.52482-.55181.70819-.57745a.2971.2971,0,0,1,.369.25992c.03177.22413-.06507.42472-.482.85728a3.15613,3.15613,0,0,1-1.91478,1.16277,1.46021,1.46021,0,0,1-1.63-1.24641c-.01723-.1223-.12747-.1692-.15886-.39333a.60083.60083,0,0,1,.31543-.56368,4.0228,4.0228,0,0,1,2.85915-3.166.88062.88062,0,0,1,1.00563.64866c.14891,1.0596-1.39379,2.50238-2.69609,2.99715-.25609.09839-.31772.25246-.29782.39506a.57248.57248,0,0,0,.64337.49147l.00778-.00109A2.21,2.21,0,0,0,26.91781,8.32392Zm-1.78845-.74608c.71392-.24576,1.95918-1.43915,1.91056-1.78558-.01722-.12211-.06967-.19791-.19178-.18088C26.35892,5.68029,25.431,6.91215,25.12936,7.57784Z"/></g></g></g></g></svg>